<?xml version="1.0" encoding="utf-8"?>
<!-- Generator: Adobe Illustrator 21.1.0, SVG Export Plug-In . SVG Version: 6.00 Build 0)  -->
<svg version="1.0" id="Warstwa_1" xmlns="http://www.w3.org/2000/svg" xmlns:xlink="http://www.w3.org/1999/xlink" x="0px" y="0px"
	 viewBox="0 0 792 792" enable-background="new 0 0 792 792" xml:space="preserve">
<g>
	<path d="M713.5,188.6c-0.6-4.9-2.2-9.8-10-11.7c-10.3-2.3-20.5-6.2-30.4-11.8c-29.8-16.5-46.3-41.3-49.3-73.5
		c-0.6-7.6-3.5-11.6-10.5-14.7c-63.3-27.9-132-41-215.8-41c-0.4,0-0.8,0-1.3,0c-29-0.3-68.5,3.6-108.3,10.6
		c-44.6,7.9-83.7,18.3-119.6,31.7c-4.8,1.8-7.9,4.4-7.9,11.4c-0.1,28-11.8,50.4-34.8,66.6c-10.7,7.6-23.3,13.7-40.9,19.6
		c-4.4,1.4-9.5,4.1-9.7,12.2c-1.3,73.2,5.1,137.9,19.5,197.9c26.3,109.4,91.9,215.6,179.9,291.4c37.4,32.3,57.7,45.2,106.1,74.1
		c5.1,3.1,10.7,4.6,16.9,4.6c10.1,0,21.9-4.1,35.9-12.4c51.1-30.3,74.4-45.6,117.2-86.1c63.4-60,110.2-136.7,138.9-228.2
		C714.8,349.1,722.9,268.1,713.5,188.6z"/>
	<path d="M525.5,309c-2.7-3.2-9.5-7.6-9.5-7.4c0.4,1.7,1,5.1,1.3,6.8c2.2,17.1,2.6,31.6-4.5,47.5c-2.7,6-6.2,11.7-11.8,15.4
		c-5.5,3.7-9.1,3-12.7-2.6c-4.5-6.8-6.5-14.4-6.4-22.6c0.3-11,0.8-22.2,0.9-33.3c0.3-16.4,0.8-33-4-49.1
		c-4.9-16.2-13.7-29.2-29.2-36.9c-3.6-1.8-5.3-1.9-5.4,3.2c-0.1,8.6-1,17.3-5,25.3c-2.8,5.8-6.7,6.8-12.3,3.7
		c-4.5-2.6-7.6-6.5-9.5-11.3c-5.1-12.1-4.4-24.5-0.5-36.6c2.8-9.1,6.9-17.7,10.1-26.7c3.7-10.5,6-21.3,4.9-32.6
		c-0.1-1.5-0.3-3.5-1.9-4c-1.9-0.6-2.7,1-3.5,2.4c-7.7,13-18.4,23.4-29.5,33.3c-10.8,9.5-21.7,18.9-32.5,28.4
		c-16.6,14.6-24.9,32.6-23.4,55.2c1,15.3,3.7,30.2,6.9,45.1c3.2,14.6,7.2,29,8.5,43.9c1,11.4-4.2,21.2-13.2,24.8
		c-9.1,3.7-19.4,0.4-26.7-8.6c-3.3-4-5.7-8.6-7.6-13.5c-3.9-10.1-5.9-20.7-7.1-31.3c-1.4-12.2-1.7-24.4-0.9-38
		c-8.1,9.2-14.6,17.9-20.4,26.8c-21.3,33-31.1,68.6-23.5,107.9c6.7,34.8,24.5,64,47.9,89.6c27.2,29.9,61.1,50.6,97.3,68.1
		c2.1,0.9,3.6,0.4,5.4-0.3c11.7-4,22.5-9.8,32.6-16.8c36.2-25.2,63.6-58.2,84.2-96.7c16.1-29.9,25.8-61.6,23.9-95.9
		C547.2,349,540.8,327.4,525.5,309z M535.9,431.8c-20.9,57.5-65.9,111.1-107,134.8c-11,6.4-20.5,9.8-24.3,10.1
		c-3.9,0.3-12.3-3.7-22.3-9.6c-27.9-16.6-52.1-31.2-74.1-55.3c-20.9-23.1-37.4-48.9-45.5-79.5c-0.8-2.8-1.2-5.8-1.7-8.6
		c-4.8-20-2.2-47.3,2.3-61.4c3.7-11.8,13.6-32,17.6-38.4c4.6-7.3,9-14.5,15.3-22.2c0.4,14.1,0.9,27,3.5,39.7
		c1.9,9.5,4.4,18.9,9.2,27.4c6.3,10.9,14.9,18.1,28.3,17.9c5.4-0.1,10.7-1.9,15.5-6c2.1-1.8,11.3-8.9,6.3-33.8
		c-4.1-20.7-8.3-36.9-11.2-53.9c-1.8-10.4-3.7-26.1-2.4-36.7c1.2-10.1,3.5-19.5,11.9-31.1c5.7-7.7,16.7-16.6,21.2-20
		c3.7-2.6,29.4-22.7,43.7-41.4c1.5-2.1,6-8,6-8s0.8,15-10.5,41c-4,9.1-7.3,18.4-8,28.3c-1.3,18.7,1.8,27.1,12.5,36.1
		c8.6,7.3,17,4.2,21.1-4.9c2.6-5.8,5.1-17.5,5.1-25.3c10.5,7.2,17.9,14,22.9,24.3c6.8,14.4,7.6,29.8,7.6,45.2
		c-0.1,15-0.8,30.2-0.9,45.2c-0.1,8.9,1.8,17.2,6.7,24.8c5.3,8.2,13.2,9.9,20.9,3.6c8.6-6.9,11.9-17.2,14.8-27.5
		c3.1-11,3.7-19.8,1.4-34.9c8,10.1,14.1,19.6,17.3,30.6C547.2,369.5,544.3,408.7,535.9,431.8z"/>
	<path d="M530.8,377.9c-0.9,1.3-1.7,2.6-2.6,3.9c-8.7,12.5-18.9,23.4-33.4,28.8c-22.3,8.3-38.1,2.3-42.1-22.9
		c-1.8-11.3-3.3-22.6-5.1-33.9c-4.2-25.8-15.5-47.6-36.2-64.1c-11.9-9.5-25.4-15.3-41-15.9c-3.6-0.1-5.1,0.8-3.5,4.8
		c1.7,3.7,3.1,7.7,4.4,11.7c7.1,20.5,12.5,41.4,13,63.3c0.8,35.6-37.1,53.6-61.8,48.7c-16.6-3.3-32-17.3-37.9-27.4
		c-0.6-1-1.8-5-3.3-3.5c-2.8,2.8-4.1,20.5-4,30.8c0.6,34.3,12.7,64.2,34.7,90.4c24.5,29.3,56.2,48.4,90.8,63.4c2.2,1,4,0.3,5.9-0.5
		c12.6-4.8,24.1-11.4,34.9-19.4c52-38.7,75.9-86.7,88.4-153.1C532.2,381.6,532.2,378.6,530.8,377.9z M522.5,398.5
		c-11.1,47.3-31,84.7-60.9,114.4c-15.9,15.8-33.7,28-52.7,36.1c-2.6,1.2-4.6,1.2-7.1,0c-38.8-17.4-66.2-37.1-86.4-61.7
		c-24.4-30-35-63.8-31.3-100.4c0.1-0.8,0.3-2,0.4-3.3c4.5,5.3,8.9,10.2,14.1,14c27.1,19.6,61.9,13.8,82.8-13.8
		c9.2-12.1,9.2-26.6,8.5-39.2c-1.2-20.1-7.1-39.8-11.8-55.5l-1-3.3c-0.3-0.8-1.3-3.6-2.1-5.7c1,0,1.9,0.1,2.5,0.2
		c12.6,2.3,23.8,8,34.2,17.4c17,15.4,27.1,35.7,31,62c0.4,3.1,0.8,6.1,1.2,9.2c1.4,11.5,2.9,23.3,7.1,34.5l0.1,0.3l0.2,0.3
		c1.4,1.5,1.9,2.6,1.9,4v1.1l1.4,0.9c1.5,0.9,2.4,1.5,2.8,2.6l0.2,0.7l0.6,0.4c14.2,8.9,29.1,8.3,47-1.6l0,0c6.7-3.8,12.4-9,17.2-14
		C522.6,398.1,522.5,398.3,522.5,398.5z"/>
	<path d="M544.1,303.9c-5.5-8.2-11.3-13.2-18.4-15.7c-6.5-2.2-12.6-1.6-17.3,1.7c-4.6,3.3-7.1,8.8-7.1,15.5c0,5.4,0.4,10.8,0.8,15.7
		c0.5,6.8,0.9,14,0.3,21c-0.7,7.6-3,12.1-7.6,15c-0.4,0.3-0.7,0.4-0.9,0.5c0-0.2-0.1-0.4-0.1-0.8c0-3.1,0.1-7.7,0.6-12.2
		c0.5-4,1-8.1,1.5-12.1c2-15.3,4.1-31.2,3.4-47.1c-1.3-25.9-12.3-47.5-32.7-64.2c-6.9-5.6-14.4-8.5-22.1-8.6
		c-9.5-0.1-15.3,5.2-15.7,14.7c-0.1,2.1,0,4.1,0,6c0,1.3,0.1,2.6,0.1,3.9c0,2.7-0.7,6.3-1.7,7.2c-0.1,0.1-0.2,0.1-0.2,0.1
		c-0.1-0.3-0.2-0.8-0.2-1.2l0-0.2c-0.5-2.8-0.3-5.6,0.1-8.8c1.8-12.9,5.5-26,11-38.8c5.6-13.1,8.1-26.3,7.5-39.4
		c-0.3-7-2.2-16-5.8-20.4c-1.6-2-5.1-4.5-9.5-4.7c-2.5-0.1-6.3,0.5-9.9,4.2c-4.7,4.8-9.6,10.5-14.3,16.1c-1.5,1.7-2.9,3.4-4.3,5
		c-7.9,9.3-17.1,17.5-26,25.5c-6.3,5.6-12.8,11.5-18.8,17.6c-26.2,27-35.7,58.5-28.1,93.6c2.1,9.7,4.9,19.3,7.6,28.5
		c1.6,5.3,3.2,10.7,4.6,16.1l0.2,0.6c1.7,6.5,3.4,13.2,2.5,20.1c-0.8,5.4-3.4,8.2-9.1,9.7c-4,1.1-6.9-0.3-10.1-4.9
		c-1.7-2.5-3.1-5.4-4.1-8.9c-4.3-13-5.3-26.4-5.8-38.9c-0.1-2.7-0.1-5.6-0.1-8.3c0-4.2,0.1-8.5-0.3-12.6c-0.6-6.2-3.3-10.9-7.7-13.3
		c-4.4-2.4-10-2.2-15.8,0.7c-4.4,2.2-8.4,5.4-11.9,9.4c-9.8,11.2-18,24.5-25.1,40.6c-22.1,50.1-20.5,97.4,4.9,140.8
		c31.1,53.1,75.4,92,131.7,115.7c8.6,3.6,13.6,5.5,18.4,5.5c5.5,0,10.5-2.5,20.1-7.7c47.2-25.8,84.8-64.3,112-114.3l0,0
		c21.1-38.7,28.1-79,20.9-119.6C558.9,338.2,554.9,320,544.1,303.9z M537.2,464.5c-26.6,51-64.6,91.3-116,118.4
		c-4.9,2.6-9.5,4.2-13.2,4.8c-3.6,0.5-8.2-1.7-12.2-3.3C334,558.6,286.9,516.8,257,456.7c-19.6-39.4-16.4-79.5,0.3-119.2
		c6.5-15.5,14.8-30.2,26.1-42.9c3.1-3.5,6.5-6.3,10.7-8.2c7.1-3.2,12.3-0.4,13.9,7.2c1.3,6.2-0.5,12.5,0.5,18.6
		c0.3,11.9,1.3,23.9,3.9,35.6c1.4,6.3,3.2,12.5,6.8,17.9c4.5,6.8,9.6,9.1,16.7,7.7c7.7-1.5,12.6-6.7,13.7-14.4c1-6,0-12.1-1.5-18
		c-3.9-14.3-7.8-28.4-11.8-42.5c-11.8-42.3,2.1-76.3,34-104c17.7-15.4,34.2-32,49.1-50.1c3.2-3.9,6.5-6.2,11.6-5
		c5.3,1.3,7.1,5.5,8,10c2.8,15.2-0.5,29.5-6.3,43.5c-4.8,11.6-8.5,23.5-10.5,35.8c-0.8,5-1.5,10-0.8,15c0.5,2.8,1.3,5.8,4.5,6.3
		c3.3,0.6,5.9-1.2,7.7-4.1c1.2-1.9,1.7-4.1,1.7-6.4c0-3.3-0.1-6.5-0.1-9.9c0-9.8,4.2-13.2,13.9-11c9.9,2.2,17.3,8.3,23.9,15.7
		c17.1,19.3,23,42,20.9,67.4c-1.2,14.8-3.5,29.3-5,43.9c-0.4,3.9-0.6,7.7-0.4,11.4c0.4,6.5,4.4,8.6,9.9,5.1c8-5,10.1-12.8,10.8-21.4
		c0.8-9.4-0.5-18.6-1-28c-0.1-3-0.3-5.9-0.1-8.9c0.5-8.2,6.8-12.8,14.8-10.8c6.2,1.5,10.7,5.5,14.5,10.4
		c10,12.7,14.6,27.9,17.6,43.1C563,388,556.6,427.4,537.2,464.5z"/>
	<path fill="#7A7979" d="M536.9,303.5c-3.9-4.9-8.3-8.9-14.5-10.4c-8-2.1-14.3,2.6-14.8,10.8c-0.1,3,0,5.9,0.1,8.9
		c0.5,9.4,1.8,18.6,1,28c-0.6,8.6-2.8,16.4-10.8,21.4c-5.5,3.5-9.5,1.4-9.9-5.1c-0.3-3.7,0-7.6,0.4-11.4c1.5-14.6,3.9-29.2,5-43.9
		c2.1-25.4-3.9-48.2-20.9-67.4c-6.5-7.3-14-13.5-23.9-15.7c-9.6-2.2-13.9,1.3-13.9,11c0,3.3,0.1,6.5,0.1,9.9c0,2.3-0.5,4.5-1.7,6.4
		c-1.8,3-4.4,4.8-7.7,4.1c-3.2-0.5-4-3.5-4.5-6.3c-0.8-5,0-10,0.8-15c2.1-12.3,5.8-24.3,10.5-35.8c5.8-14,9.1-28.4,6.3-43.5
		c-0.9-4.5-2.7-8.7-8-10c-5-1.2-8.3,1.2-11.6,5c-14.9,18.1-31.3,34.7-49.1,50.1c-32,27.7-45.8,61.8-34,104c4,14.1,8,28.3,11.8,42.5
		c1.5,5.9,2.6,11.9,1.5,18c-1.2,7.7-6,12.8-13.7,14.4c-7.1,1.4-12.2-0.9-16.7-7.7c-3.6-5.4-5.4-11.6-6.8-17.9
		c-2.6-11.7-3.6-23.6-3.9-35.6c-1-6.2,0.8-12.5-0.5-18.6c-1.5-7.6-6.8-10.4-13.9-7.2c-4.1,1.9-7.6,4.8-10.7,8.2
		c-11.3,12.7-19.5,27.4-26.1,42.9c-16.7,39.7-19.9,79.7-0.3,119.2c29.9,60.1,77.1,101.8,138.8,127.6c4,1.7,8.6,3.9,12.2,3.3
		c3.7-0.5,8.3-2.2,13.2-4.8c51.4-27.1,89.4-67.4,116-118.4c19.4-37.1,25.8-76.5,17.3-117.9C551.6,331.4,547,316.2,536.9,303.5z
		 M524.6,468.3c-20.7,38.5-48,71.5-84.2,96.7c-10.1,7.1-20.9,12.8-32.6,16.8c-1.8,0.6-3.3,1.2-5.4,0.3
		c-36.2-17.5-70.1-38.1-97.3-68.1c-23.4-25.7-41.2-54.8-47.9-89.6c-7.6-39.3,2.2-74.9,23.5-107.9c5.8-9,12.3-17.6,20.4-26.8
		c-0.8,13.6-0.5,25.8,0.9,38c1.2,10.7,3.2,21.2,7.1,31.3c1.9,4.9,4.2,9.5,7.6,13.5c7.3,9,17.6,12.3,26.7,8.6
		c9-3.6,14.3-13.4,13.2-24.8c-1.3-14.9-5.3-29.3-8.5-43.9c-3.2-14.9-5.9-29.8-6.9-45.1c-1.5-22.6,6.8-40.6,23.4-55.2
		c10.8-9.5,21.7-18.9,32.5-28.4c11.2-9.9,21.8-20.3,29.5-33.3c0.8-1.4,1.5-3.1,3.5-2.4c1.7,0.5,1.8,2.4,1.9,4
		c1.2,11.3-1.2,22.1-4.9,32.6c-3.2,9-7.3,17.6-10.1,26.7c-3.9,12.1-4.6,24.5,0.5,36.6c1.9,4.8,5,8.7,9.5,11.3
		c5.7,3.1,9.5,2.1,12.3-3.7c4-8,4.9-16.7,5-25.3c0.1-5.1,1.8-5,5.4-3.2c15.4,7.7,24.3,20.7,29.2,36.9c4.8,16.1,4.2,32.6,4,49.1
		c-0.1,11-0.6,22.2-0.9,33.3c-0.1,8.2,1.9,15.8,6.4,22.6c3.6,5.5,7.2,6.3,12.7,2.6c5.7-3.7,9.1-9.4,11.8-15.4
		c7.1-15.9,6.7-30.4,4.5-47.5c-0.3-1.7-0.9-5.1-1.3-6.8c0-0.1,6.8,4.2,9.5,7.4c15.3,18.4,21.7,39.9,23,63.3
		C550.4,406.6,540.7,438.4,524.6,468.3z"/>
	<path fill="#A6A6A6" d="M686.3,180.9c-41-13.5-66.4-42.5-71.9-86.6c-0.6-5.3-2.6-7.6-7.1-9.5c-60.1-26.2-123.2-38-188.4-39.2
		c-79.6-1.4-157.1,11.6-232.7,36.5c-8.6,3-16.4,4.8-16.8,13.6c-1.2,23.5-10.3,43.4-27.5,59.5c-15,14-33.1,22.6-52.3,28.9
		c-3.9,1.3-5.3,2.8-5.4,7.1c-0.4,26.7,0.1,53.4,2.2,80.1c1.8,22.6,13.2,96.2,15.9,107.2C155.8,598.1,332.8,715,381.8,741.2
		c16.6,8.9,33.1,2.3,50.2-6.8c18.2-9.8,62.8-39.2,76.8-51.2c85.3-72.6,143.1-160.2,175.1-267.8c20.2-67.7,28.3-136.9,22.5-207.4
		C704.8,187.7,707.3,187.8,686.3,180.9z M668.8,303.1c-6.5,62.3-21.6,122.4-47.8,179.5c-43.8,95.4-116.3,167.5-206.1,221.8
		c-10.4,6.3-11.6,4.6-16.7,1.5c-146.9-90.3-238-217.3-268.8-387.4c-6-33.1-7.8-66.6-8.6-100.2c-0.1-3.7,1.3-5.1,4.4-6.5
		c22.9-10.7,42.6-25.2,57.4-46c10.4-14.6,16.6-30.9,17.2-48.9c0.1-4.5,1.8-6.3,5.8-7.4c41.6-12.1,83.7-20.9,126.6-26.5
		c31.8-4.1,63.8-6.4,95.9-5.8c50.6,1.2,100,8.1,146.7,29.7c5.9,2.8,9.4,6.8,11.3,13c8.1,25.3,20.3,48,40.3,65.9
		c11,9.9,23.8,17,38.3,20c5,1,6,3.3,6.3,7.7C672.7,243.4,671.9,273.3,668.8,303.1z M521.8,311.5c2.3,15.2,1.7,23.9-1.4,34.9
		c-2.8,10.3-6.2,20.5-14.8,27.5c-7.7,6.3-15.7,4.6-20.9-3.6c-4.9-7.6-6.8-15.9-6.7-24.8c0.1-15,0.8-30.2,0.9-45.2
		c0-15.4-0.8-30.8-7.6-45.2c-5-10.3-12.3-17.1-22.9-24.3c0,7.8-2.6,19.5-5.1,25.3c-4.1,9.1-12.5,12.2-21.1,4.9
		c-10.7-9-13.7-17.3-12.5-36.1c0.6-9.9,4-19.1,8-28.3c11.3-25.9,10.5-41,10.5-41s-4.5,5.9-6,8c-14.3,18.6-39.9,38.8-43.7,41.4
		c-4.5,3.5-15.5,12.3-21.2,20c-8.5,11.6-10.8,20.9-11.9,31.1c-1.3,10.7,0.6,26.3,2.4,36.7c2.8,17.1,7.1,33.3,11.2,53.9
		c5,24.9-4.2,32-6.3,33.8c-4.9,4.1-10.1,5.9-15.5,6c-13.4,0.3-22-6.9-28.3-17.9c-4.9-8.5-7.3-17.9-9.2-27.4
		c-2.6-12.7-3.1-25.6-3.5-39.7c-6.3,7.7-10.7,14.9-15.3,22.2c-4,6.4-13.9,26.6-17.6,38.4c-4.5,14.1-7.1,41.4-2.3,61.4
		c0.5,2.8,0.9,5.8,1.7,8.6c8.1,30.6,24.5,56.4,45.5,79.5c22,24.1,46.2,38.8,74.1,55.3c10,5.9,18.5,9.9,22.3,9.6
		c3.7-0.4,13.2-3.7,24.3-10.1c41.1-23.8,86-77.3,107-134.8c8.3-23.1,11.3-62.3,3.2-89.8C535.9,331.1,529.7,321.6,521.8,311.5z
		 M531.9,383c-12.5,66.4-36.3,114.4-88.4,153.1c-10.8,8-22.3,14.6-34.9,19.4c-1.9,0.8-3.7,1.5-5.9,0.5c-34.5-15-66.3-34.2-90.8-63.4
		c-22-26.2-34-56.1-34.7-90.4c-0.1-10.3,1.2-28,4-30.8c1.5-1.5,2.7,2.4,3.3,3.5c5.9,10,21.3,24,37.9,27.4
		c24.7,4.9,62.5-13.1,61.8-48.7c-0.5-22-5.9-42.8-13-63.3c-1.3-4-2.7-8-4.4-11.7c-1.7-4-0.1-4.9,3.5-4.8c15.5,0.6,29,6.4,41,15.9
		c20.7,16.4,32,38.3,36.2,64.1c1.8,11.3,3.3,22.6,5.1,33.9c4,25.2,19.8,31.2,42.1,22.9c14.5-5.4,24.7-16.3,33.4-28.8
		c0.9-1.3,1.7-2.6,2.6-3.9C532.2,378.6,532.2,381.6,531.9,383z"/>
	<path fill="#FFF200" d="M505.4,411.9L505.4,411.9c-17.9,10-32.9,10.5-47.1,1.6l-0.6-0.4l-0.2-0.7c-0.3-1.1-1.3-1.7-2.8-2.6
		l-1.4-0.9v-1.1c0-1.4-0.5-2.4-1.9-4l-0.2-0.3l-0.1-0.3c-4.2-11.2-5.7-23-7.1-34.5c-0.4-3.1-0.8-6.1-1.2-9.2
		c-3.8-26.4-14-46.7-31-62c-10.5-9.4-21.7-15.1-34.2-17.4c-0.6-0.1-1.5-0.2-2.5-0.2c0.8,2.1,1.7,4.9,2.1,5.7l1,3.3
		c4.7,15.8,10.6,35.4,11.8,55.5c0.7,12.6,0.7,27-8.5,39.2c-20.9,27.5-55.7,33.3-82.8,13.8c-5.2-3.7-9.6-8.7-14.1-14
		c-0.2,1.3-0.3,2.5-0.4,3.3c-3.7,36.6,6.9,70.4,31.3,100.4c20.2,24.7,47.6,44.3,86.4,61.7c2.6,1.2,4.6,1.2,7.1,0
		c19.1-8.1,36.8-20.3,52.7-36.1c29.9-29.6,49.8-67.1,60.9-114.4c0-0.2,0.1-0.4,0.2-0.6C517.8,402.9,512.1,408.1,505.4,411.9z"/>
	<path fill="#EB0000" d="M659.1,211.2L659.1,211.2c-15-3.8-28.9-12-41.3-24.3c-17.1-16.9-29.5-37.7-36.7-61.9
		c-2-6.8-5.5-10.6-12.7-13.8c-36.7-16.1-87-24.3-118.9-26.4c-8.7-0.5-22.7-0.9-34.5-0.9c-5.7,0-10.8,0.1-14.7,0.3
		c-47.5,2.7-126.9,13.4-189,30.6c-3.6,1-4.7,2.3-4.9,6.1c-0.9,13.8-5.1,27.4-12.6,40.3c-13.5,23.1-33.7,41.1-61.7,55
		c-3.3,1.7-4.1,3-4.1,6.9c0.6,27.5,2.2,51.5,5.1,73.3c8.3,63.1,26.7,123,54.8,178c24.6,48.1,56.5,92.5,94.8,131.9
		c36.5,37.6,76.2,68.7,118,92.3c3.1,1.8,5.1,2.3,7.9,0.6c40.6-24.8,74.2-47.8,106.1-79.4c57.2-56.4,98.3-122.6,122.2-196.9
		c21.1-65.7,30.5-134.3,27.8-204.2C664.3,214.1,663.5,212.3,659.1,211.2z M540.4,471.9L540.4,471.9c-27.1,50-64.8,88.5-112,114.3
		c-9.6,5.3-14.7,7.7-20.1,7.7c-4.8,0-9.8-1.9-18.4-5.5c-56.3-23.7-100.6-62.7-131.7-115.7c-25.3-43.4-27-90.8-4.9-140.8
		c7.1-16.1,15.3-29.3,25.1-40.6c3.5-4.1,7.5-7.3,11.9-9.4c5.7-2.9,11.3-3.1,15.8-0.7c4.3,2.4,7.1,7.1,7.7,13.3
		c0.4,4.2,0.4,8.5,0.3,12.6c0,2.7,0,5.5,0.1,8.3c0.5,12.5,1.5,25.9,5.8,38.9c1.1,3.4,2.4,6.4,4.1,8.9c3.2,4.6,6.1,6,10.1,4.9
		c5.7-1.5,8.4-4.3,9.1-9.7c0.9-6.8-0.8-13.6-2.5-20.1l-0.2-0.6c-1.4-5.4-3.1-10.9-4.6-16.1c-2.7-9.2-5.6-18.8-7.6-28.5
		c-7.6-35.1,1.9-66.5,28.1-93.6c6-6.2,12.5-12,18.8-17.6c8.9-8,18.1-16.3,26-25.5c1.4-1.6,2.8-3.3,4.3-5c4.7-5.5,9.6-11.2,14.3-16.1
		c3.6-3.7,7.4-4.3,9.9-4.2c4.4,0.2,7.9,2.7,9.5,4.7c3.7,4.4,5.6,13.4,5.8,20.4c0.6,13-1.9,26.3-7.5,39.4c-5.5,12.8-9.2,25.9-11,38.8
		c-0.4,3.2-0.6,6-0.1,8.8l0,0.2c0,0.3,0.1,0.9,0.2,1.2c0.1,0,0.1-0.1,0.2-0.1c1.1-0.9,1.7-4.5,1.7-7.2c0-1.3,0-2.6-0.1-3.9
		c-0.1-2-0.1-4,0-6c0.4-9.5,6.2-14.8,15.7-14.7c7.7,0.1,15.2,3,22.1,8.6c20.4,16.7,31.4,38.3,32.7,64.2c0.7,16-1.4,31.8-3.4,47.1
		c-0.5,4-1.1,8.1-1.5,12.1c-0.6,4.5-0.6,9.1-0.6,12.2c0,0.4,0,0.7,0.1,0.8c0.2-0.1,0.5-0.2,0.9-0.5c4.6-3,6.9-7.4,7.6-15
		c0.6-7,0.2-14.2-0.3-21c-0.4-4.8-0.8-10.3-0.8-15.7c0-6.7,2.5-12.2,7.1-15.5c4.6-3.3,10.8-3.9,17.3-1.7c7.1,2.5,13,7.5,18.4,15.7
		c10.8,16.1,14.9,34.3,17.2,48.4C568.5,392.9,561.5,433.2,540.4,471.9z"/>
</g>
</svg>
