<?xml version="1.0" encoding="utf-8"?>
<!-- Generator: Adobe Illustrator 21.1.0, SVG Export Plug-In . SVG Version: 6.00 Build 0)  -->
<svg version="1.0" id="Warstwa_1" xmlns="http://www.w3.org/2000/svg" xmlns:xlink="http://www.w3.org/1999/xlink" x="0px" y="0px"
	 viewBox="0 0 792 792" enable-background="new 0 0 792 792" xml:space="preserve">
<g>
	<path d="M141.3,721.3c3.7,12.3,9.9,20.2,14,22.3c8.8,4.5,20.6,5.2,30.1,5.8l1.3,0.1c1.3,0.1,2.4,0.2,3.2,0.2c1.1,0,4,0,5.8-2.3
		c7,6.5,25.7,6.7,28.1,6.7c8,0,21.2-1.1,27.1-7.7c2.1,2.4,6,3.6,12,3.6c0,0,0,0,0,0c8.7,0,23.2-2.7,28.1-7.8
		c9.2-9.6,14.2-23.6,15.9-38.6c0.4-3.4,0.6-6.9,0.7-10.4l41.1-0.2c0.2,0,0.5,0,0.7,0c0,3.2,0.2,6.3,0.6,9.3
		c4.2,31.4,28.1,50,47.5,53.8c18.5-4.7,38.7-27.4,42.4-53c0.5-3.5,0.7-7,0.6-10.5l0-0.1c0.6,0,1.2,0,1.8,0c9.9,0,39.5-0.2,39.5-0.2
		c-0.3,4.7-0.2,8.9,0.1,12.8c0.5,5.9,1.6,10.8,2.7,14.5c3.7,12.3,9.9,20.2,14,22.3c8.8,4.5,20.6,5.2,30.1,5.8l1.3,0.1
		c1.3,0.1,2.4,0.2,3.2,0.2c1.1,0,4,0,5.8-2.3c7,6.5,25.7,6.7,28.1,6.7c8,0,21.2-1.1,27.1-7.7c2.1,2.4,6,3.6,12,3.6c0,0,0,0,0,0
		c8.7,0,23.2-2.7,28.1-7.8c5-5.2,8.8-11.8,11.5-19.1c1.6-4.5,2.8-9.2,3.7-14.1c0.9-5.1,1.4-10.4,1.5-15.8l0-3
		c-0.1-14.1-2.6-28.3-6.9-40.3c-4.2-11.6-21.7-25.5-81.5-25.5h-0.3c-4.8,0-9.2,0.1-13.3,0.4l-25.3-16.2c-3-16-9.4-29.2-9.4-29.2
		s-5.7-1.9-15.6-4.4c0.3-0.7,0.6-1.5,0.9-2.2c46-3.3,76.9-27.6,96.1-57.5c30.7-47.9,20.6-96,10-112.4c-2.8-4.3-3-12.9-3.1-16.8
		c-0.2-6.6-1.4-86.2-9.4-113.7c9.7,0.9,18.1-1.9,25.3-6.8c25.3,48,63,14.9,73-14c-17.1-43.6-40.1-77.5-56.4-91.4
		c-30.7-26-51.6-7.3-56.9-4.7c-3.5-13.1-7-26.8-14.5-44.3c-11.8-27.6-62-28.8-77.5-31.2C483.2,56,473.4,44.8,458.2,41
		C436,35.3,396,36,396,36s-40-0.7-62.2,4.9c-15.2,3.9-25,15-28.3,37.1c-15.4,2.4-65.7,3.6-77.5,31.2c-7.5,17.5-11,31.2-14.5,44.3
		c-5.3-2.5-26.2-21.2-56.9,4.7c-16.4,13.8-39.3,47.7-56.4,91.4c10,28.9,47.6,61.9,73,14c7.1,4.9,15.5,7.8,25.3,6.8
		c-8,27.5-9.3,107.1-9.4,113.7c-0.1,3.9-0.3,12.5-3.1,16.8c-10.6,16.4-20.7,64.5,10,112.4c19.2,30,50.2,54.3,96.3,57.6
		c0,0.5,0,0.4,0.1,0.9c-7.9,1.6-12.6,2.7-12.6,2.7l-2.5,5.7c-0.2,0.5-5.1,11.7-8.4,25L238.3,625c-5.8-0.3-12.1-0.5-18.9-0.5H219
		c-46.3,0-59.4,12-66,23.8c-8.9,15.7-12.8,29.7-14.2,41.6l-0.3,2.9c-0.3,4.1-0.3,7.8-0.2,11.3c0.3,5.9,1.2,10.9,2.2,14.8
		C140.8,719.8,141,720.6,141.3,721.3z"/>
	<path fill="#C65F25" d="M336.6,413.5c3.8-13.7,18-24.9,27.8-31.2c-0.8-15.5-7.8-86.6-17.4-113.5c-20.3,2.1-78.5,15.5-84.3,16.1
		c-5.8,0.6-7.1-0.5-8.7-1.3c-3.7-1.9-16.5-16.5-22.4-20.2c-12.1-1.4-23.7-9.4-23.7-9.2c-0.8,2.1-14.8,64.6-14.2,113.3
		c0.2,16.1-2.3,28.1-3.9,31.2C203.5,412.6,256,455.6,336.6,413.5z M252.5,300.6c16.1-23.9,38.3-17.3,42.6-15.1
		c8.1,4.2,4.9,11.3,0.2,10c-6.1-1.7-23.1-3-38.1,11.5C253.7,310.4,249.8,304.6,252.5,300.6z M234.4,343.7c7.5-18.1,21.2-27,36-31
		c0.1,0,0.1,0,0.2,0c5.3-1.4,10.7-2.1,16.1-2.1c5.5,0,10.9,0.8,16,2.2c6.7,1.8,12.9,4.8,17.9,8.9c2.8,2.3,22.1,17,23,50.3
		c0.2,6.2-0.3,13.1-1.6,20.6c-0.6,3.6-1.7,6.5-3,8.9c-3.8,7-9.7,9.2-13.8,10.8c-1.9,0.7-3.7,1.4-5.6,2c-12.2,4-24.7,5.2-35.4,5.2
		c-2.5,0-4.8-0.1-7.1-0.2c-10.5-0.5-18.3-2.1-20.6-2.7c-13.1-3.5-16.4-10-18.5-14.6C222.6,368.7,232.6,347.8,234.4,343.7z
		 M560.4,263.3c-5.9,3.7-18.7,18.3-22.4,20.2c-1.6,0.8-2.9,1.9-8.7,1.3c-5.8-0.6-63.9-13.9-84.3-16.1
		c-9.6,26.9-17.1,97.9-17.9,113.5c9.7,6.3,24.4,17.5,28.2,31.2c80.6,42.2,133.1-0.8,146.8-14.8c-1.6-3.1-4.1-15.1-3.9-31.2
		c0.6-48.7-13.4-111.2-14.2-113.3C584.1,253.9,572.5,261.9,560.4,263.3z M496.9,285.5c4.3-2.3,26.5-8.8,42.6,15.1
		c2.7,4-1.2,9.8-4.7,6.4c-15-14.5-32.1-13.2-38.1-11.5C492,296.8,488.8,289.7,496.9,285.5z M553.8,402.1
		c-2.1,4.6-5.4,11.1-18.5,14.6c-2.2,0.6-10,2.2-20.6,2.7c-2.2,0.1-4.6,0.2-7.1,0.2c-10.7,0-23.2-1.2-35.4-5.2
		c-1.9-0.6-3.7-1.3-5.6-2c-5.4-2.2-14.2-5.3-16.7-19.7c-8.5-48,18.1-68.3,21.4-71c5-4.1,11.2-7.1,17.9-8.9c5.1-1.4,10.6-2.2,16-2.2
		c5.4,0,10.9,0.7,16.1,2.1c0.1,0,0.1,0,0.2,0c14.8,4,28.5,12.9,36,31C559.4,347.8,569.4,368.7,553.8,402.1z M294.5,345.2
		c-21.1,0-38.2,17.1-38.2,38.2c0,11.8,5.3,22.7,14.6,30c0.3,0,0.6,0.1,0.9,0.1l0.4,0c0.4,0,0.9,0.1,1.3,0.1l0.6,0
		c0.6,0,1.1,0.1,1.7,0.1c0.4,0,0.9,0.1,1.3,0.1l0.8,0c0.4,0,0.9,0,1.3,0.1l0.8,0c0.5,0,1,0,1.4,0l0.7,0c0.7,0,1.5,0,2.2,0
		c14.5,0,27.6-2.3,38.9-6.9l0.5-0.2c0.4-0.2,0.8-0.3,1.1-0.5c5.1-6.7,7.9-14.7,7.9-23.1C332.7,362.3,315.5,345.2,294.5,345.2z
		 M295.4,410.2c-14.8,0-26.9-12-26.9-26.9c0-3.4,0.6-6.7,1.9-9.9c-1-1.9-1.5-3.9-1.5-6c0-7.2,5.9-13.1,13.1-13.1c2.9,0,5.7,1,8,2.8
		c1.8-0.4,3.5-0.5,5.3-0.5c14.8,0,26.9,12,26.9,26.9C322.2,398.2,310.2,410.2,295.4,410.2z M589.3,196.8c-4.5-20.1-9.1-37-9.7-38.5
		c12.1-7.3,30-16,51.4,3.4c25.2,22.9,60.1,83.5,56.4,90.3c-11.4,20.9-25.1,27.8-26.4,28.4c-16.7,8-28.7-6.1-31.2-9.3
		C606.3,240.4,609.9,170,609,164.9c0-1.6-2.3,11.2-2.5,29.7C602.7,195,592.6,196.3,589.3,196.8z M185.5,198.6l16.3,2.3
		c-2.5,11.3-4.8,23.2-6.3,33.8l-13-2C184.7,220.8,185.5,209,185.5,198.6z M610.2,236.5c1.6,7.8,3.8,15.5,6.8,22.8
		c-2.3,2.3-14.8,7.3-24.1,6.4c0,0-0.9-4.2-3.9-14.5c3.9-3.7,8.7-5.9,8.1-10.9c-0.1-0.5-0.1-1-0.2-1.5L610.2,236.5z M497.5,345.2
		c-21.1,0-38.2,17.1-38.2,38.2c0,8.4,2.7,16.4,7.8,23.1c0.4,0.2,0.8,0.3,1.1,0.5l0.5,0.2c11.3,4.5,24.4,6.9,38.9,6.9
		c0.7,0,1.5,0,2.2,0l0.7,0c0.5,0,1,0,1.4,0l0.8,0c0.4,0,0.9,0,1.3-0.1l2.1-0.1c0.6,0,1.2-0.1,1.7-0.1l2.3-0.2c0.3,0,0.6-0.1,0.9-0.1
		c9.3-7.3,14.6-18.2,14.6-30C535.7,362.3,518.6,345.2,497.5,345.2z M496.6,410.2c-14.8,0-26.9-12-26.9-26.9c0-4.2,1-8.4,2.9-12.1
		c-0.4-1.2-0.6-2.5-0.6-3.8c0-7.2,5.9-13.1,13.1-13.1c2.8,0,5.5,0.9,7.7,2.5c1.3-0.2,2.5-0.3,3.7-0.3c14.8,0,26.9,12,26.9,26.9
		C523.5,398.2,511.4,410.2,496.6,410.2z M106,254.5c-0.5-0.8-1-1.7-1.5-2.6c-2.5-4.5,12.3-33,29.8-58.3
		C136.7,208.6,130.5,246.9,106,254.5z"/>
	<path fill="#FFFFFF" d="M419.1,145.8c1.6,3.5,3.3,15.6-9.2,15.4c-3.7-0.1-6.1-0.3-12.3,2.5c-16.2,7-16.6-9.7-16.3-11.2
		c0.6-4.8,2.2-11.2,7.4-16.8c2.2-2.5,11.8-13.2,24.8,1C417.5,141,418.6,144.8,419.1,145.8z M396.1,126.8c5.1-0.9,8.7-7.8,7.5-15.4
		c-1.2-7.6-6.8-13.1-11.9-12.2c-5.1,0.9-9.4,7.7-8.2,15.4C384.7,122.2,391,127.7,396.1,126.8z M424.4,127.5c4.4-5,5-12.4,1.6-15.6
		c-3.4-3.2-10.1-2.1-14.5,2.9c-4.4,5-4.9,12.1-1.6,15.3C413.3,133.3,420,132.5,424.4,127.5z M350.1,446.7c-0.1,0-0.2,0-0.5,0.1
		c-1.7,0.8-5.5,5.1-9.2,16.6c4.2,2.6,11.2,6.1,15.4,7.3C355.9,466.5,353.5,448.2,350.1,446.7z M384.6,135.3c2.4-4.2-0.1-11.3-6-14.9
		c-5.8-3.5-12.8-2.2-15.2,2c-2.4,4.2-0.1,11.1,5.7,14.6C375,140.6,382.2,139.5,384.6,135.3z M507,321.3c-11.3,0-34.6,1.3-47.8,27
		c-3.4,6.7-5.6,14.1-7,21.8c-0.3,6.5,0,13.7,1.5,21.8c1.5,8.3,5.1,12.1,9,14.4c-4.5-6.8-6.9-14.7-6.9-23c0-23,18.7-41.7,41.7-41.7
		c23,0,41.7,18.7,41.7,41.7c0,12.1-5.1,23.4-14.2,31.3c4.6-0.6,8-1.3,9.3-1.6c11.6-3.1,14.2-8.6,16.1-12.5c1.5-3.1,2.9-6.6,4.1-10.3
		c3.5-14.5,1-28.4-1.2-34.9C550.2,346.1,538.9,321.3,507,321.3z M289.6,359c-2-1.8-4.7-2.9-7.6-2.9c-6.3,0-11.4,5.1-11.4,11.4
		c0,2.2,0.6,4.2,1.7,5.9c2,3.3,5.6,5.5,9.7,5.5c6.3,0,11.4-5.1,11.4-11.4C293.5,364.1,292,361,289.6,359z M492.4,358.6
		c-2-1.6-4.5-2.6-7.2-2.6c-6.3,0-11.4,5.1-11.4,11.4c0,1.4,0.3,2.7,0.7,4c1.6,4.3,5.8,7.4,10.7,7.4c6.3,0,11.4-5.1,11.4-11.4
		C496.6,363.9,495,360.7,492.4,358.6z M451.6,463.4c-3.7-11.5-7.5-15.9-9.2-16.6c-0.2-0.1-0.3-0.1-0.4-0.1c0,0-0.1,0-0.1,0
		c-3.4,1.5-5.8,19.8-5.7,24C440.5,469.5,447.4,466.1,451.6,463.4z M257.7,413c1.3,0.4,4.6,1,9.3,1.6c-9.1-7.9-14.2-19.2-14.2-31.3
		c0-23,18.7-41.7,41.7-41.7c23,0,41.7,18.7,41.7,41.7c0,8.3-2.4,16.1-6.9,23c3.9-2.3,7.5-6,9-14.4c1.4-8.1,1.8-15.3,1.5-21.8
		c-1.4-7.7-3.6-15.1-7-21.8c-13.2-25.6-36.5-27-47.8-27c-31.9,0-43.2,24.8-46.3,33.9c-2.2,6.5-4.7,20.3-1.2,34.9
		c1.2,3.7,2.7,7.2,4.1,10.3C243.5,404.5,246,409.9,257.7,413z M403.4,717c0-0.5-0.1-1-0.1-1.6c5.6-2.8,8.8-8,7.7-14.3
		c-1-6-4.9-10.3-9.1-14.4c-0.4-0.4-0.9-1-1.4-1c-2.3,0.2,2.4,17.8-5.5,18.3c-6.9,0.5-5-12.8-4.3-17.4c0.1-0.6,0.3-1.8-0.6-1.5
		c-1.9,0.6-4.4,3.7-5.8,5.1c-5.9,6.2-8.6,14.4-2.1,21.3c0.6,0.7,1.6,1.5,2.5,2.1c0.7,0.5,1.8,1.1,2.6,1.5c0.2,0.1,0.3,0.1,0.4,0.2
		c0,1.1-0.1,2-0.1,3.1c-0.1,4.1-0.5,18.3-0.5,19.9c4.8,2.9,8.1,3.7,8.9,3.7c1.8,0,6.9-3.6,8.1-4.5c0-0.5,0-0.5-0.1-0.9
		C404,735.9,403.5,717.5,403.4,717z"/>
	<path fill="#ECD5C5" d="M562.6,627c63.7,0,75,15.5,77.5,22.5c9.1,25.2,11.2,66.7-8.8,87.5c-5.6,5.8-36.9,10-33.8,1.9
		c6.6-17.6,10.2-89.1-3.9-105.4c6.7,19.6,9.1,80.5-1.2,105.8c-4.9,12.1-47.6,9.4-51,1.5c-10-23.7-1.9-75.6,10-109.1
		c-23.1,34-18.1,95.5-16.2,103.9c1.7,7.7,1.8,7.9-4.5,7.4c-9.4-0.6-21.3-1.2-29.8-5.5c-6.8-3.5-29-38.5-0.4-89.1
		C506.6,637.9,518.5,627.1,562.6,627z M157.3,739.6c8.4,4.3,20.3,4.8,29.8,5.5c6.3,0.5,6.3,0.3,4.5-7.4
		c-1.9-8.4-6.8-69.9,16.2-103.9c-11.9,33.5-20,85.3-10,109.1c3.3,7.9,46,10.6,51-1.5c10.3-25.3,7.9-86.2,1.2-105.8
		c14.2,16.3,10.6,87.8,3.9,105.4c-3.1,8.1,28.2,4,33.8-1.9c19.9-20.8,17.8-62.3,8.8-87.5c-2.5-7-13.8-22.5-77.5-22.5
		c-44.2,0-56,10.8-62.1,21.5C128.3,701.1,150.5,736.1,157.3,739.6z M297.9,520c-6.9,14.9-11.7,34.6-7,46.4
		c-53.3-5.2-80.1-42.8-83-46.4c-11.6-14.5-42.8-68.4-19.1-118.4c67,65.6,147,14.1,146.7,15.4c-0.3,1.2-2.9,13.4-1.9,24.7
		c0.2,2.6,1.2,2.8,1.3,0c1-20,6-31.5,13.3-39.4c6.4-7,13-11.7,20.4-17.9c-0.4-2.9-3.7-70.6-18.2-116.1c11.4-3,45.6-3.6,45.6-3.6
		s34.2,0.7,45.6,3.6c-14.5,45.5-17.8,113.2-18.2,116.1c7.5,6.2,14,10.9,20.4,17.9c7.3,7.9,12.3,19.4,13.3,39.4
		c0.1,2.8,1.1,2.6,1.3,0c1-11.3-1.6-23.5-1.9-24.7c-0.3-1.2,79.7,50.2,146.7-15.4c23.7,50.1-7.4,104-19.1,118.4
		c-2.9,3.6-29.8,41.2-83,46.4c4.7-11.9-0.1-31.5-7-46.4c-2.6,0.8,29.4,55.8-35.5,82.2c-8.2,3.4-28.9,11.7-62.6,11.7
		c-33.7,0-54.4-8.4-62.6-11.7C268.5,575.8,300.6,520.7,297.9,520z M446.9,435.4c0,1.5,1.2,2.7,2.7,2.7c1.5,0,2.7-1.2,2.7-2.7
		c0-1.5-1.2-2.7-2.7-2.7C448.1,432.7,446.9,433.9,446.9,435.4z M439.7,419.4c0,1.5,1.2,2.7,2.7,2.7c1.5,0,2.7-1.2,2.7-2.7
		c0-1.5-1.2-2.7-2.7-2.7C440.9,416.7,439.7,417.9,439.7,419.4z M430.7,436.2c0,1.5,1.2,2.7,2.7,2.7c1.5,0,2.7-1.2,2.7-2.7
		s-1.2-2.7-2.7-2.7C431.9,433.5,430.7,434.7,430.7,436.2z M378.2,381.2l1.7-0.6c5.5-1.9,15.5-2.2,16-2.2v0l0.1,0l0,0
		c0.5,0,10.6,0.3,16,2.2l1.7,0.6l-1-1.5c-3.6-5-16.2-4.9-16.8-4.9c-0.5,0-13.2-0.1-16.8,4.9L378.2,381.2z M356,436.2
		c0,1.5,1.2,2.7,2.7,2.7c1.5,0,2.7-1.2,2.7-2.7s-1.2-2.7-2.7-2.7C357.2,433.5,356,434.7,356,436.2z M347,419.4
		c0,1.5,1.2,2.7,2.7,2.7c1.5,0,2.7-1.2,2.7-2.7c0-1.5-1.2-2.7-2.7-2.7C348.2,416.7,347,417.9,347,419.4z M339.7,435.4
		c0,1.5,1.2,2.7,2.7,2.7c1.5,0,2.7-1.2,2.7-2.7c0-1.5-1.2-2.7-2.7-2.7C341,432.7,339.7,433.9,339.7,435.4z M325,466.4
		c0,1.5,0.7,1.8,1,1.9c0.6,0.1,1.2-0.4,1.6-1.2l0.1-0.2c0.8-2.5,2-4.8,3.5-6.7c18.5,18.6,53,22.6,64.9,22.6
		c11.9,0,46.4-4.1,64.9-22.6c1.5,1.9,2.7,4.2,3.5,6.7l0.1,0.2c0.3,0.9,0.9,1.3,1.6,1.2c0.3-0.1,1-0.4,1-1.9c0-2.7-0.7-11.5-10.3-13
		c-1-0.1-1.5,0.4-1.7,0.9c-0.2,0.7,0.1,1.4,0.8,1.7c1.1,0.5,2.1,1.2,3,2.1c-1.2,1-2.5,1.9-3.8,2.9c-2.3-7.2-6.9-13.4-7.9-14.5
		c-2.2-2.2-4.3-3.1-6.1-2.8c-1.7,0.3-3.2,1.7-4.4,4.1c-1.5,3.1-3.5,7.2-4.6,24.3c-15.2,4.9-29.4,5.7-34.3,5.9l1.2-41.6
		c26.4-7.5,29-26.5,29.1-32.2c0.1-4.5-1.4-8.4-4.4-11.5c-8.7-8.9-26.8-9-27.6-9c-0.8,0-18.9,0.1-27.6,9c-3.1,3.1-4.6,7-4.4,11.5
		c0.1,5.7,2.7,24.7,29.1,32.2l1.2,41.6c-4.9-0.2-19.1-1-34.3-5.9c-1.1-17.1-3.1-21.2-4.6-24.3c-1.2-2.4-2.6-3.8-4.4-4.1
		c-1.9-0.3-4,0.6-6.1,2.8c-1.1,1.1-5.7,7.3-7.9,14.5c-1.3-0.9-2.6-1.9-3.8-2.9c1-0.9,1.9-1.5,3-2.1c0.7-0.3,1-1.1,0.8-1.7
		c-0.2-0.5-0.7-1-1.7-0.9C327.6,454.5,325,460.8,325,466.4z M203,251.1c-3.9-3.7-8.7-5.9-8.1-10.9c0.1-0.5,0.1-1,0.2-1.5l-13.2-2.2
		c-1.6,7.8-3.8,15.5-6.8,22.8c2.3,2.3,14.8,7.3,24.1,6.4C199.1,265.6,200,261.5,203,251.1z M185.5,194.6c3.8,0.5,13.9,1.8,17.2,2.2
		c4.5-20.1,9.1-37,9.7-38.5c-12.1-7.3-30-16-51.4,3.4c-7.6,6.9-16.1,17.3-24.2,28.6c4,16.8-3.4,58.6-29.3,66.7
		c10.7,17,22.3,22.9,23.4,23.4c16.7,8,28.7-6.1,31.2-9.3c23.6-30.6,19.9-101.1,20.9-106.1C183,163.3,185.3,176.1,185.5,194.6z
		 M606.5,198.6l-16.3,2.3c2.5,11.3,4.8,23.2,6.3,33.8l13-2C607.3,220.8,606.5,209,606.5,198.6z"/>
	<path fill="#FFD500" d="M272,611.7c3.1-15.2,9.4-29.6,9.4-29.6c14.2,11.7,72.6,37.5,97.8,40.8c-1.8,1.7-2.8,4.3-3,7.6
		c-0.4,6.1-0.9,13.2-0.8,20.2c0,3.5,0.6,6.2,1.5,8.4c-42.4-6.7-85-22.5-99.1-34.4C274.2,621.8,270.9,617.1,272,611.7z M433.8,687.5
		l48.6,0.7c1.3-11.9,5.3-26.1,14.2-41.9c2.1-3.7,4.9-7.5,9.1-10.9c-14.2,7.4-46.8,22.7-84.8,28c0.1,0.8,1.3,10.7,3.3,15.4
		C426,683,430.1,686.3,433.8,687.5z M363.1,682.7c5.5-6.2,6.6-16.6,6.8-19.3c-30.2-5.7-61.3-16.5-77.5-24.2
		c4.6,3.5,7.1,7.2,8.4,10.8c4.2,11.7,6.7,25.5,6.9,39.2l47.1,0.6C356.7,688.8,359.3,687.1,363.1,682.7z M199.7,241.1
		c8.7-50.8,31.2-122.3,32.5-125.6c9.4-24.6,43.8-29.2,64.4-31.9c6-0.8,10.8-1.4,13-2.4l0.3-0.1l0.1-0.3c0.3-1,0.6-2.1,0.9-3.2
		c2-7.1,4.5-15.9,10.4-22.5c7.7-8.6,27.9-11.8,74.8-11.8c46.8,0,67.1,3.2,74.8,11.8c5.9,6.6,8.4,15.4,10.4,22.5
		c0.3,1.1,0.6,2.2,0.9,3.2l0.1,0.3l0.3,0.1c2.3,1,7,1.6,13,2.4c20.6,2.7,55,7.3,64.4,31.9c1.3,3.3,23.8,74.8,32.5,125.6
		c-2.1,2.7-9.6,11.1-27.5,17.4c-0.2,0.1-0.5,0.1-0.9,0.2c-1.7,0.3-5,1-8,4c-1,1-10.6,10-17.4,16.1c-2.3,2.1-5.4,2.6-6.8,2.2
		c-0.8-0.2-88.5-22.5-131.6-22.5c-1.4,0-2.7,0-4,0.1c-41.5-1.5-134.8,22.2-135.7,22.5c-0.3,0.1-0.6,0.1-1,0.1
		c-4.8-4.8-6.4-12.8-6.6-15.5c-0.1-1.2-0.7-1.4-1-1.4c0,0,0,0,0,0c-0.7,0-1.2,0.8-1.2,1.5c-0.4,4.2,0.2,8.1,1.6,11.7
		c-6.6-6-14.9-13.8-15.9-14.7c-3.1-3-6.3-3.6-8-4c-0.4-0.1-0.7-0.1-0.9-0.2C209.3,252.2,201.8,243.8,199.7,241.1z M558,238.3
		l0.4,1.2l0.7-1c5.1-7.3,7.1-70.1,2.7-82l-1.1-3l0,3.2c-0.1,11.5-1,34.1-1.7,52.4C558,229.7,557.8,237.6,558,238.3z M526.1,257.5
		l-2.1,0.8c-6.1,2.4-14.9,1.9-24.7-1.6l-0.3-0.1c-52.5-18.1-102.5-17.1-103-17c-0.5,0-50.6-1.1-103,17l-0.3,0.1
		c-9.9,3.5-18.7,4-24.7,1.6l-2.1-0.8l1.4,1.7c3.7,4.6,16.4,4.2,33.8-1c35.6-10.8,86-13,94.8-13c0.1,0,0.1,0,0.2,0
		c8.7,0,59.1,2.2,94.8,13c9.4,2.8,17.3,4.3,23.3,4.3c5.2,0,8.8-1.1,10.5-3.2L526.1,257.5z M463.8,152.3l0.1,2.9l1.1-2.7
		c0.8-2,1.9-10.6,3.3-21.5c2.3-18.2,5.5-43.1,9.1-49.7l1.1-2.1l-2,1.4C469.6,85.2,462.8,113.9,463.8,152.3z M345.7,140.8
		c7.6,27.7,24.5,47.6,50.1,59.1l0.2,0.1l0.2-0.1c25.6-11.5,42.5-31.3,50.1-59.1c5.4-19.7,4.2-37.1,3.7-42l0-0.4l-0.4-0.1
		c-3.4-0.7-8.7-2.1-10.5-2.7l-0.1,0c-0.5-0.1-1.2-0.4-1.4-1.8c-0.2-1.3-0.2-2.7-0.2-4.9c0-1.1,0-2.4,0-4l0-0.4l-0.3-0.2
		c-14.1-6.5-30.7-9.4-41-9.4c0,0,0,0,0,0c-10.3,0-26.9,2.9-41,9.4l-0.3,0.2l0,0.4c0,1.6,0,2.9,0,4c0,2.2,0,3.6-0.2,4.9
		c-0.2,1.4-1,1.7-1.4,1.8l-0.1,0c-1.8,0.6-7,2-10.5,2.7l-0.4,0.1l0,0.4C341.5,103.8,340.2,121.2,345.7,140.8z M317.6,83.3l0.1,1.3
		c0.4,3.8,5.7,36.4,7.7,47.1l0.3,1.8l0.8-1.7c2.7-6-1.5-43-7.9-47.7L317.6,83.3z M241.9,246.6l0.4,1.1
		c58.8-20.1,116.6-20.9,144.3-21.2c3.7,0,6.9-0.1,9.3-0.2c2.4,0.1,5.6,0.1,9.4,0.2c27.2,0.3,83.7,1,141.5,20.3l-11.4,6.3l1.1,1.2
		l0.4-0.2c3.5-1.7,12.8-6.2,13.2-6.4l-0.2-0.5l0.2-0.6c-26-12.7-57.8-20.7-97.1-24.4c1.6-14.2,2.7-35.1,3.8-57.2
		c2.1-41.1,4.5-87.8,11-106.5l0.9-2.6l-1.9,2c-5.4,5.8-16.1,47.5-18.5,163.8c-16.1-1.4-33.7-2-52.4-1.9c-18.7-0.1-36.3,0.6-52.4,1.9
		c-2.3-116.3-13.1-158-18.5-163.8l-1.9-2l0.9,2.6c6.4,18.7,8.8,65.4,11,106.5c1.1,22.1,2.2,43,3.8,57.2
		C299.7,225.9,267.9,233.9,241.9,246.6z M233.5,238.5l0.5,2.1l0.6-2.1c0.1-0.4,0.4-4.9,1.1-18.4c1.3-25.1,3.5-67.2,5.6-81.9l0.3-2.3
		l-1.4,1.8C233.8,146.4,228.9,218.9,233.5,238.5z M274.7,628.4c-5.9-5-8.6-11.4-7.3-17.6l-22.5,14.7c15.9,1.4,27.5,4,35.9,7.3
		C278.5,631.3,276.4,629.8,274.7,628.4z M517.4,628.9c6.4-2.5,14.6-4.4,25.3-5.5L524.9,612C525.4,617.6,523.5,624.9,517.4,628.9z
		 M415.5,630.6c0.4,6.1,0.9,13.1,0.8,20.3c0,3.2-0.5,5.7-1.3,7.7c51.4-3.2,93-28.3,99.1-33.1c5.2-4,6-8.8,6-14.2
		c0.1-9.3-7.6-26.9-7.6-26.9c-4.3,2.5-56.1,31.9-99.9,38.3C414.5,624.3,415.2,627,415.5,630.6z M369.6,695c-1.4,1.2-3.9,2.9-5.6,3.7
		c-0.3,0.2-0.6,0.3-0.9,0.4c-0.1,0-0.1,0.1-0.2,0.1c0,0.1,0.1,0.2,0.1,0.4c0,0.2,0.1,0.4,0.1,0.5c0.2,1.3,1.3,5.4,1.7,6.9
		c0.2,0.5,0.4,1.1,0.5,1.7c0.4,1.2,0.8,2.4,1.2,3.6l0.2,0.5c0.5,1.4,1.2,3.2,1.8,4.2l1.2,2.4c2.3,4.5,5.4,8.8,8.6,12.1
		c2.1,2.1,3.8,3.6,6.5,5.5c0.1,0.1,0.2,0.1,0.3,0.2c0-1.2,0-2.3,0.1-3.5c0-0.6,0-1.2,0.1-1.8c0-1.3,0.1-2.6,0.1-3.9
		c0-1.5,0.1-3.3,0.1-5c0.1-1.2,0.1-2.4,0.1-3.6c0-0.3,0-0.7,0-1c0-0.5,0-1,0-1.5c-1.8-0.9-4.5-3.1-5.4-4.3c-0.1-0.1-0.2-0.2-0.3-0.3
		c-0.1-0.1-0.2-0.2-0.3-0.3c-1-1.3-1.8-2.5-2.4-4c-0.2-0.5-0.4-0.9-0.5-1.4c-0.1-0.2-0.1-0.4-0.2-0.5c-0.4-1.1-0.6-3.7-0.4-4.9
		c0.1-0.3,0.1-0.5,0.1-0.7c0.1-0.4,0.1-0.7,0.3-1.4c0.7-2.7,2.1-5.3,4.5-8.3c0.6-0.7,1.4-1.6,2.4-2.6c1.5-1.5,2.8-2.7,4.5-4
		c0.8-0.6,2.1-1.7,3.6-0.8c1.6,0.9,1.4,2.5,1.3,3.7c-0.2,1.8-0.5,3.5-0.6,6.4c-0.2,3.6,0.5,8.3,2.5,8.4c2.6,0.2,3-5.3,3.2-7.2
		c0.3-3.1,0.2-6.8,0.1-8.2c-0.1-1.2,0.3-2,1-2.6c1.5-1.1,3.3,0.2,4.3,1.2l0.8,0.6c1.8,1.7,4.3,4.3,5.3,5.8l0.3,0.5
		c1,1.5,1.6,2.4,2.5,4.3c2.1,4.5,2.2,8.9,0.4,12.7c-1.2,2.5-2.6,4-4.5,5.7c-0.5,0.5-1.7,1.4-2.6,2c0,0.4,0,0.9,0.1,1.3
		c0,0.4,0.1,0.7,0.1,1l0,0.3c0,0.9,0,1.7,0.1,2.6c0.1,1.3,0.1,2.6,0.1,3.9c0,1.5,0.1,3.1,0.2,4.6c0,0.3,0,0.7,0,1.1
		c0,0.6,0,1.2,0.1,1.7c0.1,0.6,0.1,1.3,0.1,2c0,0.2,0,0.3,0,0.5c0.2-0.2,0.3-0.3,0.5-0.5c0.4-0.3,0.7-0.6,1.1-1
		c0.1-0.1,0.2-0.2,0.3-0.3l0.2-0.2c0.1-0.1,0.3-0.3,0.4-0.4c0.2-0.2,0.5-0.5,0.7-0.7l0.1-0.1c0.6-0.7,1.4-1.5,2.1-2.3
		c3.2-3.9,4.8-6.4,7.3-11.1c1.1-2,2.6-5.1,3.6-8.2c0.1-0.3,0.2-0.7,0.4-1c0.1-0.3,0.2-0.6,0.3-0.9c0.5-1.5,2.2-6.7,2.7-10.2
		c0-0.2,0.1-0.5,0.1-0.8c0-0.2,0.1-0.5,0.1-0.8c-0.1,0-0.2,0-0.3,0c-1.9-0.3-3.8-1-5.5-1.9c-0.1-0.1-0.2-0.1-0.3-0.2
		c-0.1-0.1-0.3-0.2-0.4-0.2l-0.1,0l-0.6-0.5c-5.1-3.5-7.6-11-7.7-16.8c0-0.1,0-0.2,0-0.3c-0.3,0-0.7-0.1-1.2-0.1
		c-4.1-0.6-10.7-0.7-15.1-0.6c-0.5,0-1.1,0-1.6,0.1c-0.7,0-1.5,0.1-2.3,0.1l-1.8,0.1c-0.4,0-0.7,0-1,0.1c-0.3,0-0.6,0.1-0.8,0.1
		c-0.6,0-1.2,0.1-1.8,0.2c-0.6,0.1-1.2,0.1-1.8,0.2l-3.6,0.3c-0.8,0.1-1.7,0.2-2.6,0.2c-0.1,0-0.3,0-0.4,0c0,0.3,0,0.5,0,0.8
		c0,0.3,0,0.5,0,0.7c0,1.8-0.5,4.2-1.1,6C374.8,689.1,372.9,692,369.6,695z"/>
	<path fill="#9EA1A0" d="M354.1,695.5c2.4,37.5,33.8,56.4,43.4,56.4c11.1,0,40.6-31.3,38.4-59.4c-9.7-1.2-13.7-6.6-16.1-11.6
		c-0.8-1.6-2.1-6.4-3.2-14.6c-3.2-0.8-42.8-1.3-43,0.2c-2.1,14.8-4.9,18-6.3,19.9C364.4,690.3,357.8,694.4,354.1,695.5z
		 M375.7,675.4c2.9-0.2,5.8-0.4,8.7-0.7c6-0.6,12-0.8,18-0.6c2.5,0.1,5,0.2,7.6,0.5c0.9,0.1,2.3,0,3.1,0.4c0.7,0.3,0.6,0.9,0.7,1.6
		c0.3,7.7,3.3,15.7,11.4,17.8c1,0.3,2.4,0.1,3.3,0.5c0.8,0.3,0.4,1.3,0.3,2.2c-0.4,2.7-0.8,4.8-1.6,7.5c-1.1,4.1-2.5,8.2-4.3,12.1
		c-1.6,3.5-3.5,6.9-5.6,10c-2.4,3.5-5.1,6.7-8.2,9.6c-1.6,1.6-7.6,6-10.9,7.9c-0.8,0.5-1,0.6-2.2,0.4c-5-0.9-9-3-13-5.9
		c-4.5-3.2-8.5-7.2-11.6-11.8c-0.8-1.2-1.6-2.4-2.3-3.7c-3.2-5.2-5.3-11-7-17.1c-0.4-1.5-0.9-3.2-1.2-4.8c-0.8-3.8-1-3.6,0.6-4.2
		c3.8-1.4,7.8-4.6,10-7.9c0.8-1.2,1.5-2.4,2.1-3.9c0.9-2.6,1.3-4.9,1.3-7.7C374.8,676.5,374.5,675.5,375.7,675.4z M409,631
		c0.5,6.6,0.9,13.2,0.8,19.7c0,3.8-0.7,7.9-4.7,9.1c-2.3,0.7-16.3,0.7-18.5,0c-4-1.3-4.7-5.3-4.7-9.1c-0.1-6.6,0.3-13.2,0.8-19.7
		c0.3-3.6,1.1-4.2,4.1-4.2c2.3,0,6.6,0,9.1,0c2.5,0,6.7,0,9.1,0C407.9,626.8,408.7,627.5,409,631z M396,195.2
		c23.5-11,39-29.7,46.1-55.5c4.5-16.3,4.2-30.9,3.8-37.6c-3.1-0.7-6.6-1.7-8.2-2.2c-3.4-1.1-4.2-3.8-4.5-5.4
		c-0.2-1.6-0.2-3.1-0.2-5.5c0-0.5,0-0.9,0-1.5c-13-5.5-27.7-8-37-8c-9.3,0-24,2.5-37,8c0,0.5,0,1,0,1.5c0,2.3,0,3.8-0.2,5.5
		c-0.2,1.6-1.1,4.3-4.4,5.4c-1.6,0.6-5.2,1.5-8.2,2.2c-0.5,6.8-0.7,21.4,3.8,37.6C357,165.5,372.5,184.2,396,195.2z M353.2,106.9
		c13.6-1.7,11.4-11.7,11.4-12.9c15.8-6.7,31.3-6.9,31.3-6.9s15.5,0.1,31.3,6.9c0.1,1.2-2.2,11.3,11.4,12.9c0,3.3,4.2,57.7-42.8,80.3
		C349,164.6,353.2,110.2,353.2,106.9z"/>
</g>
</svg>
